<svg id="Layer_1" xmlns="http://www.w3.org/2000/svg" viewBox="-368.2 479 235.4 44"><style>.st0{fill:#4E4E56;} .st1{fill:#63B2E7;} .st2{fill:#0076BF;} .st3{fill:#255AA8;}</style><path class="st0" d="M-310.2 506.2v4.2h-3v-19h3v10.9l5.7-6h3.8l-6.2 6.5 7.4 7.6h-3.7l-5.5-5.7-1.5 1.5zM-285 503.4c0 4.9-4.1 7.2-7 7.2-2.9 0-7-2.3-7-7.2s4.1-7.2 7-7.2c2.9-.1 7 2.3 7 7.2zm-7-4.7c-1.9 0-4.1 1.5-4.1 4.6 0 3.1 2.2 4.6 4.1 4.6 1.9 0 4.1-1.5 4.1-4.6-.1-3-2.3-4.6-4.1-4.6zM-259.3 502.7v7.7h-3v-7.7c0-2.7-1.4-4-3.1-4-2.2 0-3.4 1.6-4 3.3v8.4h-3v-7.7c0-2.7-1.4-4-3.1-4-2.4 0-3.4 1.9-3.9 3.9v7.7h-3v-14h3v3.2c0-1.1 1.4-3.3 4.1-3.3 2.3 0 4.4.9 5.4 3.3.4-1.4 2-3.3 4.7-3.3 3.1 0 5.9 1.6 5.9 6.5zM-242.7 503.4c0 4.9-4.1 7.2-7 7.2s-7-2.3-7-7.2 4.1-7.2 7-7.2c2.9 0 7 2.3 7 7.2zm-7-4.7c-1.9 0-4.1 1.5-4.1 4.6 0 3.1 2.2 4.6 4.1 4.6s4.1-1.5 4.1-4.6c0-3-2.2-4.6-4.1-4.6zM-226.8 510.4h-3v-2.3c-.1 1.1-2 2.5-4.2 2.5-3 0-6.6-2.3-6.6-7.2 0-4.8 3.7-7.2 6.6-7.2 2.3 0 3.6 1 4.2 2v-6.7h3v18.9zm-2.8-7.1c0-3.3-2-4.6-4-4.6-1.9 0-4 1.6-4 4.6 0 3.1 2.1 4.7 4 4.7s4-1.4 4-4.7zM-209.9 503.4c0 4.9-4.1 7.2-7 7.2s-7-2.3-7-7.2 4.1-7.2 7-7.2 7 2.3 7 7.2zm-7-4.7c-1.9 0-4.1 1.5-4.1 4.6 0 3.1 2.2 4.6 4.1 4.6 1.9 0 4.1-1.5 4.1-4.6-.1-3-2.2-4.6-4.1-4.6zM-194.3 502.1v8.2h-1.4v-8.2c0-3.3-1.9-4.7-4.3-4.7-2.7 0-4.7 2.4-5.1 4.6v8.4h-1.4v-19h1.4v8.5c.2-1.2 1.9-3.8 5.2-3.8 2.8.1 5.6 1.8 5.6 6zM-190.1 503.9c.2 3.7 3.1 5.4 5.4 5.4 1.6 0 3.2-.6 4.3-1.9l1.1.7c-1.4 1.6-3.3 2.4-5.4 2.4-3 0-6.8-2.4-6.8-7.2 0-4.8 3.7-7.2 6.8-7.2s6.7 2.4 6.7 7.2c0 .2 0 .4-.1.6h-12zm10.8-1.2c-.3-3.6-3.1-5.3-5.4-5.3-2.3 0-5.1 1.7-5.4 5.3h10.8zM-163.7 507.2c-1.1 2.3-3.2 3.3-5.4 3.3-3 0-6.7-2.4-6.7-7.2 0-4.8 3.7-7.2 6.7-7.2 2.2 0 4.4 1.1 5.4 3.3v-3.1h1.4v14.1h-1.4v-3.2zm.1-3.9c0-4.1-3-6-5.4-6s-5.4 1.9-5.4 6 3 6 5.4 6 5.4-1.9 5.4-6zM-158.5 491.4h1.4v18.9h-1.4v-18.9zM-147.9 508.9v1.1c-.6.3-1.2.5-2.2.5-1.1 0-2.1-.5-2.1-2.2v-10.8h-1.9v-1.2h1.9v-2.4h1.4v2.4h2.9v1.2h-2.9V508c0 1 .4 1.3 1.1 1.3.6 0 1.2-.2 1.8-.4zM-132.8 502.1v8.2h-1.4v-8.2c0-3.3-1.9-4.7-4.3-4.7-2.7 0-4.7 2.4-5.1 4.6v8.4h-1.4v-19h1.4v8.5c.2-1.2 1.9-3.8 5.2-3.8 2.8.1 5.6 1.8 5.6 6z"/><g><path class="st0" d="M-346.3 495.8c-.9 0-1.8.2-2.5.6l2.5 4.7-4.7-2.6c-.4.7-.6 1.6-.6 2.5 0 2.9 2.4 5.3 5.3 5.3s5.3-2.4 5.3-5.3-2.4-5.2-5.3-5.2z"/><path class="st1" d="M-353.1 508.6c-2.6-2.2-5-4.6-6.6-7.6 1.6-3 4-5.5 6.6-7.6 3.2-2.7 8.6-3.5 10.4-5.3 2.1-2.1 2.1-5.4 0-7.5-2.1-2-5.4-2-7.5 0-1 1-1.4 2.6-1.5 3.5-.3 2.3-2 5.1-4.2 7.4-2.2 2.2-5.1 4-7.4 4.2-.3 0-.7.1-1.1.2-.6.2-1.2.4-1.7.8-.2.2-.4.3-.6.5-.7.7-1.1 1.4-1.3 2.3 0 .2-.1.3-.1.5v.1c0 .1 0 .3-.1.4v1s0 .3.1.4v.1c0 .2.1.3.1.5.2.8.7 1.6 1.3 2.3.2.2.4.4.6.5.5.4 1.1.6 1.7.8.4.1.8.2 1.1.2 2.3.3 5.1 2 7.4 4.2 2.2 2.2 4 5.1 4.2 7.4.1 1 .6 2.5 1.5 3.5 2.1 2.1 5.4 2.1 7.5 0 2-2.1 2-5.4 0-7.5-1.8-1.8-7.2-2.5-10.4-5.3z"/><path class="st2" d="M-339.6 493.4c2.6 2.2 5 4.6 6.6 7.6-1.6 3-4 5.5-6.6 7.6-3.2 2.7-8.6 3.5-10.4 5.3-2.1 2.1-2.1 5.4 0 7.5 2.1 2 5.4 2 7.5 0 1-1 1.4-2.6 1.5-3.5.3-2.3 2-5.1 4.2-7.4 2.2-2.2 5.1-4 7.4-4.2.3 0 .7-.1 1.1-.2.6-.2 1.2-.4 1.7-.8.2-.2.4-.3.6-.5.7-.7 1.1-1.4 1.3-2.3 0-.2.1-.3.1-.5v-.1c0-.1 0-.3.1-.4v-.2-.3-.3-.2s0-.3-.1-.4v-.1c0-.2-.1-.3-.1-.5-.2-.8-.7-1.6-1.3-2.3-.2-.2-.4-.4-.6-.5-.5-.4-1.1-.6-1.7-.8-.4-.1-.8-.2-1.1-.2-2.3-.3-5.1-2-7.4-4.2-2.2-2.2-4-5.1-4.2-7.4-.1-1-.6-2.5-1.5-3.5-2.1-2.1-5.4-2.1-7.5 0-2 2.1-2 5.4 0 7.5 1.8 1.8 7.2 2.5 10.4 5.3z"/><path class="st3" d="M-351.4 518.9c.2.7.5 1.4 1 2.1 0 0 0 .1.1.1l.1.1.3.3c.1.1.2.1.2.2.1 0 .1.1.2.1l.2.2c.1 0 .1.1.2.1s.1.1.2.1.2.1.2.1c.1 0 .1.1.2.1s.2.1.3.1c.1 0 .1 0 .2.1.1 0 .2.1.3.1.1 0 .1 0 .2.1.1 0 .2 0 .3.1h2c.1 0 .2 0 .3-.1.1 0 .1 0 .2-.1.1 0 .2-.1.3-.1.1 0 .1 0 .2-.1.1 0 .2-.1.3-.1.1 0 .1-.1.2-.1s.2-.1.2-.1c.1 0 .1-.1.2-.1s.1-.1.2-.1c.1-.1.2-.1.2-.2.1 0 .1-.1.2-.1.1-.1.2-.1.2-.2l.3-.3.1-.1s0-.1.1-.1c.5-.6.8-1.4 1-2.1.4-1.7-.1-3.6-1.4-4.9-.8-.8-2.1-1.3-3.7-1.9-1.6.6-2.9 1.2-3.7 1.9-1.5 1.3-2 3.1-1.6 4.9zM-341.2 483.1c-.2-.7-.5-1.4-1-2.1 0 0 0-.1-.1-.1l-.1-.1-.3-.3s-.2-.1-.2-.2c-.1 0-.1-.1-.2-.1l-.2-.2c-.1 0-.1-.1-.2-.1s-.1-.1-.2-.1-.2-.1-.2-.1c-.1 0-.1-.1-.2-.1s-.2-.1-.3-.1c-.1 0-.1 0-.2-.1-.1 0-.2-.1-.3-.1-.1 0-.1 0-.2-.1-.1 0-.2 0-.3-.1h-2c-.1 0-.2 0-.3.1-.1 0-.1 0-.2.1-.1 0-.2.1-.3.1s-.1 0-.2.1c-.1 0-.2.1-.3.1s-.1.1-.2.1-.2.1-.2.1c-.1 0-.1.1-.2.1s-.1.1-.2.1c-.1.1-.2.1-.2.2-.1 0-.1.1-.2.1-.1.1-.2.1-.2.2l-.3.3-.1.1s0 .1-.1.1c-.5.6-.8 1.4-1 2.1-.4 1.7.1 3.6 1.4 4.9.8.8 2.1 1.3 3.7 1.9 1.6-.6 2.9-1.2 3.7-1.9 1.5-1.3 1.9-3.1 1.6-4.9z"/></g></svg>